<?xml version="1.0" encoding="UTF-8" standalone="no"?>
<!DOCTYPE svg PUBLIC "-//W3C//DTD SVG 1.1//EN" "http://www.w3.org/Graphics/SVG/1.1/DTD/svg11.dtd">
<svg fill="#8AFFE7" width="100%" height="100%" viewBox="0 0 319 353" version="1.1" xmlns="http://www.w3.org/2000/svg" xmlns:xlink="http://www.w3.org/1999/xlink" xml:space="preserve" xmlns:serif="http://www.serif.com/" style="fill-rule:evenodd;clip-rule:evenodd;stroke-linejoin:round;stroke-miterlimit:2;">
    <g transform="matrix(1,0,0,1,-46540.342443,-654.660427)">
        <g transform="matrix(1,0,0,1,4470,0)">
            <g transform="matrix(1.615493,0,0,1.615493,41901.874995,506.078479)">
                <path d="M262.495,133.199C266.343,133.188 282.268,131.8 291.131,138.965C313.657,157.176 291.657,184.125 288.742,189.627C275.906,213.857 305.127,223.753 301.18,246.442C296.312,274.424 262.777,269.153 257.495,269.238C228.111,269.708 234.87,299.793 213.379,308.209C186.09,318.895 173.472,286.534 171.192,282.688C155.988,257.041 132.781,277.492 115.657,264.278C92.093,246.097 112.966,220.414 116.322,214.401C131.489,187.232 98.293,178.946 105.256,153.425C111.849,129.255 140.292,133.182 142.504,133.192C165.354,133.297 165.46,129.443 176.924,109.75C192.242,83.438 216.251,89.71 227.073,106.778C239.962,127.108 238.44,133.102 262.495,133.199Z"/>
            </g>
        </g>
    </g>
</svg>
