<?xml version="1.0" encoding="UTF-8" standalone="no"?>
<!DOCTYPE svg PUBLIC "-//W3C//DTD SVG 1.1//EN" "http://www.w3.org/Graphics/SVG/1.1/DTD/svg11.dtd">
<svg fill="#8AFFE7" width="100%" height="100%" viewBox="0 0 372 387" version="1.1" xmlns="http://www.w3.org/2000/svg" xmlns:xlink="http://www.w3.org/1999/xlink" xml:space="preserve" xmlns:serif="http://www.serif.com/" style="fill-rule:evenodd;clip-rule:evenodd;stroke-linejoin:round;stroke-miterlimit:2;">
    <g transform="matrix(1,0,0,1,-40588.303122,-1455.96142)">
        <g transform="matrix(1,0,0,1,4470,0)">
            <g transform="matrix(1.235926,0,0,1.235926,35670.330719,1315.281826)">
                <path d="M512.496,114.52L513.298,114.605C515.695,134.025 529.031,202.844 530.514,210.495C531.1,213.52 532.729,211.038 546.308,198.297C570.04,176.03 569.741,175.807 593.473,153.471C598.382,148.85 598.218,148.824 602.758,143.883C607.569,138.647 601.389,150.765 601.113,151.307C593.119,166.98 588.62,178.056 563.961,228.717C563.76,229.13 561.574,233.621 562.611,234.3C563.354,234.787 582.909,231.68 600.496,229.468C653.692,222.775 671.565,218.423 658.773,223.844C651.678,226.851 580.601,266.14 576.349,268.233C574.039,269.371 572.514,269.956 574.658,271.299C583.678,276.946 645.172,309.544 651.335,312.811C656.826,315.722 664.591,319.067 660.454,319.258C656.901,319.422 657.094,317.988 616.45,312.928C563.966,306.395 560.881,304.715 562.1,307.563C564.132,312.309 564.618,311.993 590.02,365.738C603.051,393.308 604.077,392.886 604.496,395.5C605.384,401.036 602.147,393.99 552.741,348.237C550.417,346.086 532.53,328.466 531.501,328.504C530.008,328.561 530.836,329.625 514.347,417.469C513.88,419.957 513.274,426.172 513.143,426.249C512.95,426.363 512.818,425.854 512.593,425.861C512.559,425.862 511.77,426.786 511.466,425.522C510.498,421.492 511.827,421.301 502.369,374.526C493.561,330.971 496.157,327.552 492.568,328.649C491.891,328.856 492.205,329.162 470.553,349.556C468.123,351.845 447.815,370.973 440.307,378.297C422.998,395.181 423.081,395.227 421.552,396.667C421.493,396.723 421.552,396.667 420.562,396.438L420.278,395.499C429.78,378.373 458.451,316.493 461.658,309.57C463.419,305.769 461.773,305.845 461.48,305.879C429.74,309.57 378.725,316.816 371.539,317.837C370.976,317.917 369.735,318.093 364.556,319.192C364.297,318.697 364.038,318.202 363.778,317.706C380.519,309.491 404.717,295.978 408.236,294.013C447.225,272.24 454.766,271.479 448.602,268.311C411.943,249.473 412.749,248.097 376.249,228.966C366.472,223.842 366.295,224.282 363.868,223.05C358.155,220.151 367.019,221.333 443.441,231.991C459.687,234.257 464.374,236.025 461.92,231.31C461.426,230.361 452.64,212.011 451.836,210.331C449.313,205.061 420.301,144.467 420.31,144.449C421.223,142.578 421.717,144.37 427.769,150.212C431.187,153.513 462.377,183.622 470.884,191.067C492.829,210.273 492.774,213.357 494.114,211.289C494.78,210.26 503.971,158.173 504.787,153.547C505.348,150.369 511.796,113.825 511.806,113.825C512.132,113.824 512.17,114.521 512.496,114.52Z"/>
            </g>
        </g>
    </g>
</svg>
