<?xml version="1.0" encoding="UTF-8" standalone="no"?>
<!DOCTYPE svg PUBLIC "-//W3C//DTD SVG 1.1//EN" "http://www.w3.org/Graphics/SVG/1.1/DTD/svg11.dtd">
<svg fill="#8AFFE7" width="100%" height="100%" viewBox="0 0 357 334" version="1.1" xmlns="http://www.w3.org/2000/svg" xmlns:xlink="http://www.w3.org/1999/xlink" xml:space="preserve" xmlns:serif="http://www.serif.com/" style="fill-rule:evenodd;clip-rule:evenodd;stroke-linejoin:round;stroke-miterlimit:2;">
    <g transform="matrix(1,0,0,1,-45497.855793,-1516.862088)">
        <g transform="matrix(1,0,0,1,4470,0)">
            <g transform="matrix(-0.683186,-0,0,-2.09227,45050.436587,29882.854197)">
                <path d="M5521.252,13474.787C5535.387,13473.09 5546.312,13469.349 5550.827,13464.658C5555.343,13459.967 5552.938,13454.857 5544.318,13450.825C5506.357,13433.07 5452.038,13407.664 5452.038,13407.664L5493.523,13398.207C5493.523,13398.207 5547.973,13423.674 5587.367,13442.1C5596.451,13446.349 5611.32,13448.881 5627.189,13448.881C5643.058,13448.881 5657.926,13446.349 5667.01,13442.1C5706.405,13423.674 5760.854,13398.207 5760.854,13398.207L5802.339,13407.664C5802.339,13407.664 5748.02,13433.07 5710.059,13450.825C5701.439,13454.857 5699.034,13459.967 5703.55,13464.658C5708.066,13469.349 5718.99,13473.09 5733.125,13474.787C5796.457,13482.388 5887.975,13493.373 5887.975,13493.373L5870.52,13508.879C5870.52,13508.879 5782.302,13498.291 5718.194,13490.596C5703.296,13488.808 5686.663,13489.51 5673.646,13492.476C5660.63,13495.442 5652.873,13500.297 5652.873,13505.48C5652.873,13527.477 5652.873,13557.518 5652.873,13557.518L5602.279,13557.518C5602.279,13557.518 5602.279,13527.414 5602.279,13505.387C5602.279,13500.204 5594.523,13495.349 5581.507,13492.383C5568.49,13489.417 5551.856,13488.715 5536.959,13490.503C5472.604,13498.227 5383.858,13508.879 5383.858,13508.879L5366.402,13493.373C5366.402,13493.373 5457.92,13482.388 5521.252,13474.787Z"/>
            </g>
        </g>
    </g>
</svg>
