<?xml version="1.0" encoding="UTF-8" standalone="no"?>
<!DOCTYPE svg PUBLIC "-//W3C//DTD SVG 1.1//EN" "http://www.w3.org/Graphics/SVG/1.1/DTD/svg11.dtd">
<svg fill="#8AFFE7" width="100%" height="100%" viewBox="0 0 341 331" version="1.1" xmlns="http://www.w3.org/2000/svg" xmlns:xlink="http://www.w3.org/1999/xlink" xml:space="preserve" xmlns:serif="http://www.serif.com/" style="fill-rule:evenodd;clip-rule:evenodd;stroke-linejoin:round;stroke-miterlimit:2;">
    <g transform="matrix(1,0,0,1,-40558.708793,-635.221816)">
        <g transform="matrix(1,0,0,1,4470,0)">
            <g transform="matrix(1.783176,0,0,1.783176,35776.732823,212.503572)">
                <path d="M325.123,242.496C323.282,251.836 314.783,283.975 313.833,287.568C309.733,303.071 310.404,303.656 311.656,304.12C320.247,307.299 362.845,312.251 365.298,314.726C369.812,319.279 350.673,327.04 331.493,338.489C315.192,348.22 315.059,348.962 315.594,350.462C317.067,354.597 345.825,391.619 343.505,396.503C340.695,402.421 296.762,382.418 294.2,385.169C289.978,389.701 280.148,445.894 270.856,411.404C265.899,393.006 266.068,393.038 261.632,374.452C260.477,369.609 251.781,380.607 241.906,388.958C227.317,401.297 214.658,417.674 217.769,405.553C225.439,375.664 232.157,356.502 231.431,355.572C230.593,354.498 212.163,353.08 210.45,352.745C195.642,349.843 182.869,351.002 180.478,351.22C162.724,352.831 192.293,337.16 205.647,327.723C210.531,324.272 232.573,312.284 232.789,309.52C233.122,305.259 206.618,240.252 207.907,237.656C209.529,234.385 220.081,245.207 233.528,254.459C234.172,254.901 242.055,261.479 242.44,261.633C249.973,264.654 250.66,269.739 259.387,273.781C264.554,276.174 267.32,282.867 272.78,278.864C295.165,262.454 324.26,234.612 325.151,238.631C325.218,238.932 325.149,238.917 325.123,242.496Z" style="fill:#8AFFE7;"/>
            </g>
        </g>
    </g>
</svg>
