<?xml version="1.0" encoding="UTF-8" standalone="no"?>
<!DOCTYPE svg PUBLIC "-//W3C//DTD SVG 1.1//EN" "http://www.w3.org/Graphics/SVG/1.1/DTD/svg11.dtd">
<svg width="100%" height="100%" viewBox="0 0 566 578" version="1.1" xmlns="http://www.w3.org/2000/svg" xmlns:xlink="http://www.w3.org/1999/xlink" xml:space="preserve" xmlns:serif="http://www.serif.com/" style="fill-rule:evenodd;clip-rule:evenodd;stroke-linecap:round;stroke-linejoin:round;stroke-miterlimit:1.5;">
    <g transform="matrix(1,0,0,1,-23063.333796,-3109.940849)">
        <g transform="matrix(1,0,0,1,4470,0)">
            <g transform="matrix(2.25,0,0,2.25,7796.494492,-2110.489565)">
                <g>
                    <g transform="matrix(1.576386,0,0,1.603394,2446.133503,-2013.123037)">
                        <rect x="1493.582" y="2703.836" width="157.039" height="157.655" style="fill:rgb(138,255,231);fill-opacity:0;stroke:rgb(138,255,231);stroke-width:2.52px;"/>
                    </g>
                    <g transform="matrix(0.702945,0,0,0.702945,1417.38151,-6433.432502)">
                        <path d="M5064.346,12705.128L5064.346,12657.578L5076.191,12657.578L5092.459,12704.629L5137.787,12689.213L5153.289,12732.496L5101.931,12730.147L5134.7,12775.693L5121.55,12785.126L5079.129,12745.715L5064.238,12792.919L5022.424,12775.841L5055.752,12730.34L5010.152,12705.241L5011.997,12686.259L5064.346,12705.128Z" style="fill:rgb(138,255,231);"/>
                    </g>
                    <g transform="matrix(1.849723,0,0,1.849723,2883.26358,-2516.352764)">
                        <path d="M1113.098,2624.755L1133.284,2624.755C1137.609,2624.755 1141.525,2625.388 1145.033,2626.653C1148.541,2627.918 1151.537,2629.695 1154.022,2631.984C1156.506,2634.273 1158.421,2637.004 1159.767,2640.179C1161.112,2643.353 1161.785,2646.861 1161.785,2650.703C1161.785,2654.522 1161.112,2658.024 1159.767,2661.21C1158.421,2664.396 1156.506,2667.139 1154.022,2669.439C1151.537,2671.74 1148.541,2673.522 1145.033,2674.788C1141.525,2676.053 1137.609,2676.685 1133.284,2676.685L1113.098,2676.685L1113.098,2624.755ZM1133.284,2663.987C1135.216,2663.987 1136.97,2663.711 1138.546,2663.159C1140.122,2662.607 1141.479,2661.779 1142.618,2660.675C1143.756,2659.571 1144.636,2658.185 1145.257,2656.517C1145.878,2654.849 1146.189,2652.911 1146.189,2650.703C1146.189,2648.495 1145.878,2646.557 1145.257,2644.889C1144.636,2643.221 1143.756,2641.835 1142.618,2640.731C1141.479,2639.627 1140.122,2638.799 1138.546,2638.247C1136.97,2637.695 1135.216,2637.418 1133.284,2637.418L1127.867,2637.418L1127.867,2663.987L1133.284,2663.987Z" style="fill:rgb(138,255,231);"/>
                    </g>
                    <g transform="matrix(1.513868,0,0,1.513868,2307.959131,-1561.73633)">
                        <path d="M1680.668,2576.482L1702.254,2576.482L1726.201,2639.933L1707.06,2639.933L1702.76,2627.285L1680.204,2627.285L1675.862,2639.933L1656.721,2639.933L1680.668,2576.482ZM1697.827,2611.77L1691.461,2593.304L1685.137,2611.77L1697.827,2611.77Z" style="fill:rgb(138,255,231);"/>
                    </g>
                    <g transform="matrix(1.513868,0,0,1.513868,2297.405048,-1595.619376)">
                        <path d="M1698.595,2744.998C1695.054,2744.998 1691.716,2744.611 1688.582,2743.839C1685.448,2743.066 1682.567,2741.962 1679.939,2740.529C1677.311,2739.096 1674.964,2737.381 1672.899,2735.385C1670.833,2733.39 1669.076,2731.155 1667.629,2728.682C1666.181,2726.209 1665.078,2723.545 1664.319,2720.693C1663.56,2717.84 1663.181,2714.853 1663.181,2711.733C1663.181,2708.614 1663.56,2705.634 1664.319,2702.796C1665.078,2699.957 1666.181,2697.308 1667.629,2694.848C1669.076,2692.389 1670.833,2690.154 1672.899,2688.145C1674.964,2686.135 1677.311,2684.421 1679.939,2683.001C1682.567,2681.582 1685.448,2680.486 1688.582,2679.713C1691.716,2678.94 1695.054,2678.553 1698.595,2678.553C1701.968,2678.553 1705.109,2678.891 1708.018,2679.565C1710.927,2680.24 1713.59,2681.16 1716.007,2682.327C1718.425,2683.493 1720.596,2684.87 1722.521,2686.458C1724.446,2688.046 1726.098,2689.754 1727.475,2691.581L1712.382,2701.784C1711.707,2700.772 1710.913,2699.83 1710,2698.959C1709.086,2698.088 1708.053,2697.336 1706.901,2696.703C1705.748,2696.071 1704.477,2695.572 1703.085,2695.207C1701.694,2694.841 1700.197,2694.659 1698.595,2694.659C1696.15,2694.659 1693.922,2695.087 1691.913,2695.944C1689.903,2696.802 1688.189,2697.989 1686.769,2699.507C1685.35,2701.025 1684.247,2702.831 1683.46,2704.925C1682.673,2707.019 1682.279,2709.288 1682.279,2711.733C1682.279,2714.291 1682.673,2716.645 1683.46,2718.795C1684.247,2720.946 1685.357,2722.801 1686.79,2724.36C1688.224,2725.92 1689.938,2727.136 1691.934,2728.007C1693.929,2728.879 1696.15,2729.314 1698.595,2729.314C1701.912,2729.314 1704.737,2728.619 1707.069,2727.227C1709.402,2725.836 1711.018,2723.918 1711.918,2721.473L1697.035,2721.473L1697.035,2706.253L1733.335,2706.253C1733.335,2712.183 1732.548,2717.538 1730.974,2722.316C1729.4,2727.094 1727.117,2731.162 1724.123,2734.521C1721.13,2737.88 1717.49,2740.466 1713.204,2742.279C1708.917,2744.091 1704.048,2744.998 1698.595,2744.998Z" style="fill:rgb(138,255,231);"/>
                    </g>
                </g>
            </g>
        </g>
    </g>
</svg>
